HIERARCHY
ROOT Hips
{
	OFFSET 0.000000 121.760803 0.000000
	CHANNELS 6 Xposition Yposition Zposition Xrotation Yrotation Zrotation 
	JOINT Spine
	{
		OFFSET 0.072000 7.257294 -0.789700
		CHANNELS 3 Xrotation Yrotation Zrotation
		JOINT Spine1
		{
			OFFSET 0.000000 12.508769 -0.658067
			CHANNELS 3 Xrotation Yrotation Zrotation
			JOINT Spine1_split
			{
				OFFSET 0.000000 12.508769 -0.658067
				CHANNELS 3 Xrotation Yrotation Zrotation
				JOINT Spine2
				{
					OFFSET 0.000000 12.508769 -0.658067
					CHANNELS 3 Xrotation Yrotation Zrotation
					JOINT Neck
					{
						OFFSET 0.000000 14.033295 7.520400
						CHANNELS 3 Xrotation Yrotation Zrotation
						JOINT Head
						{
							OFFSET 0.000000 8.198502 5.703100
							CHANNELS 3 Xrotation Yrotation Zrotation
							JOINT HeadTop_End
							{
								OFFSET 0.000000 17.760803 13.332701
								CHANNELS 3 Xrotation Yrotation Zrotation
								End Site
								{
									OFFSET 0.000000 0.000000 0.000000
								}
							}
						}
					}
					JOINT LeftShoulder
					{
						OFFSET 6.292450 5.785301 -0.669000
						CHANNELS 3 Xrotation Yrotation Zrotation
						JOINT LeftShoulder_split
						{
							OFFSET 6.292450 5.785301 -0.669000
							CHANNELS 3 Xrotation Yrotation Zrotation
							JOINT LeftArm
							{
								OFFSET 13.907140 -6.093903 1.965100
								CHANNELS 3 Xrotation Yrotation Zrotation
								JOINT LeftForeArm
								{
									OFFSET 34.140198 0.000000 0.000000
									CHANNELS 3 Xrotation Yrotation Zrotation
									JOINT LeftHand
									{
										OFFSET 40.960209 0.000000 0.000000
										CHANNELS 3 Xrotation Yrotation Zrotation
										JOINT LeftHandThumb1
										{
											OFFSET 10.006996 -7.170425 9.573125
											CHANNELS 3 Xrotation Yrotation Zrotation
											JOINT LeftHandThumb2
											{
												OFFSET 1.835007 -1.059448 1.059443
												CHANNELS 3 Xrotation Yrotation Zrotation
												JOINT LeftHandThumb3
												{
													OFFSET 2.112267 -1.219513 1.219518
													CHANNELS 3 Xrotation Yrotation Zrotation
													JOINT LeftHandThumb4
													{
														OFFSET 4.843811 -2.796570 2.796576
														CHANNELS 3 Xrotation Yrotation Zrotation
														End Site
														{
															OFFSET 0.000000 0.000000 0.000000
														}
													}
												}
											}
										}
										JOINT LeftHandIndex1
										{
											OFFSET 18.389847 -0.922348 4.596882
											CHANNELS 3 Xrotation Yrotation Zrotation
											JOINT LeftHandIndex2
											{
												OFFSET 4.711273 0.000000 0.000000
												CHANNELS 3 Xrotation Yrotation Zrotation
												JOINT LeftHandIndex3
												{
													OFFSET 2.886131 0.000000 0.000000
													CHANNELS 3 Xrotation Yrotation Zrotation
													JOINT LeftHandIndex4
													{
														OFFSET 6.145912 0.000000 0.000000
														CHANNELS 3 Xrotation Yrotation Zrotation
														End Site
														{
															OFFSET 0.000000 0.000000 0.000000
														}
													}
												}
											}
										}
										JOINT LeftHandMiddle1
										{
											OFFSET 18.013008 0.000000 0.000000
											CHANNELS 3 Xrotation Yrotation Zrotation
											JOINT LeftHandMiddle2
											{
												OFFSET 4.946693 0.000000 0.000000
												CHANNELS 3 Xrotation Yrotation Zrotation
												JOINT LeftHandMiddle3
												{
													OFFSET 3.342232 0.000000 0.000000
													CHANNELS 3 Xrotation Yrotation Zrotation
													JOINT LeftHandMiddle4
													{
														OFFSET 4.461754 0.000000 0.000000
														CHANNELS 3 Xrotation Yrotation Zrotation
														End Site
														{
															OFFSET 0.000000 0.000000 0.000000
														}
													}
												}
											}
										}
										JOINT LeftHandRing1
										{
											OFFSET 15.849892 -0.102921 -4.126150
											CHANNELS 3 Xrotation Yrotation Zrotation
											JOINT LeftHandRing2
											{
												OFFSET 3.527054 0.000000 0.000000
												CHANNELS 3 Xrotation Yrotation Zrotation
												JOINT LeftHandRing3
												{
													OFFSET 2.961098 0.000000 0.000000
													CHANNELS 3 Xrotation Yrotation Zrotation
													JOINT LeftHandRing4
													{
														OFFSET 4.927200 0.000000 0.000000
														CHANNELS 3 Xrotation Yrotation Zrotation
														End Site
														{
															OFFSET 0.000000 0.000000 0.000000
														}
													}
												}
											}
										}
										JOINT LeftHandPinky1
										{
											OFFSET 12.791824 -0.832031 -6.799156
											CHANNELS 3 Xrotation Yrotation Zrotation
											JOINT LeftHandPinky2
											{
												OFFSET 3.327133 0.000000 0.000000
												CHANNELS 3 Xrotation Yrotation Zrotation
												JOINT LeftHandPinky3
												{
													OFFSET 3.014900 0.000000 0.000000
													CHANNELS 3 Xrotation Yrotation Zrotation
													JOINT LeftHandPinky4
													{
														OFFSET 5.847786 0.000000 0.000000
														CHANNELS 3 Xrotation Yrotation Zrotation
														End Site
														{
															OFFSET 0.000000 0.000000 0.000000
														}
													}
												}
											}
										}
									}
								}
							}
						}
					}
					JOINT RightShoulder
					{
						OFFSET -6.292450 5.785301 -0.669000
						CHANNELS 3 Xrotation Yrotation Zrotation
						JOINT RightShoulder_split
						{
							OFFSET -6.292450 5.785301 -0.669000
							CHANNELS 3 Xrotation Yrotation Zrotation
							JOINT RightArm
							{
								OFFSET -13.907140 -6.093903 1.965100
								CHANNELS 3 Xrotation Yrotation Zrotation
								JOINT RightForeArm
								{
									OFFSET -34.140198 0.000000 0.000000
									CHANNELS 3 Xrotation Yrotation Zrotation
									JOINT RightHand
									{
										OFFSET -40.960209 0.000000 0.000000
										CHANNELS 3 Xrotation Yrotation Zrotation
										JOINT RightHandThumb1
										{
											OFFSET -10.007050 -7.170456 9.573117
											CHANNELS 3 Xrotation Yrotation Zrotation
											JOINT RightHandThumb2
											{
												OFFSET -1.835007 -1.059448 1.059443
												CHANNELS 3 Xrotation Yrotation Zrotation
												JOINT RightHandThumb3
												{
													OFFSET -2.112267 -1.219513 1.219518
													CHANNELS 3 Xrotation Yrotation Zrotation
													JOINT RightHandThumb4
													{
														OFFSET -4.843834 -2.796585 2.796590
														CHANNELS 3 Xrotation Yrotation Zrotation
														End Site
														{
															OFFSET 0.000000 0.000000 0.000000
														}
													}
												}
											}
										}
										JOINT RightHandIndex1
										{
											OFFSET -18.389870 -0.922424 4.596786
											CHANNELS 3 Xrotation Yrotation Zrotation
											JOINT RightHandIndex2
											{
												OFFSET -4.711273 0.000000 0.000000
												CHANNELS 3 Xrotation Yrotation Zrotation
												JOINT RightHandIndex3
												{
													OFFSET -2.886131 0.000000 0.000000
													CHANNELS 3 Xrotation Yrotation Zrotation
													JOINT RightHandIndex4
													{
														OFFSET -6.145920 0.000000 0.000000
														CHANNELS 3 Xrotation Yrotation Zrotation
														End Site
														{
															OFFSET 0.000000 0.000000 0.000000
														}
													}
												}
											}
										}
										JOINT RightHandMiddle1
										{
											OFFSET -18.013008 0.000000 0.000000
											CHANNELS 3 Xrotation Yrotation Zrotation
											JOINT RightHandMiddle2
											{
												OFFSET -4.946693 0.000000 0.000000
												CHANNELS 3 Xrotation Yrotation Zrotation
												JOINT RightHandMiddle3
												{
													OFFSET -3.342232 0.000000 0.000000
													CHANNELS 3 Xrotation Yrotation Zrotation
													JOINT RightHandMiddle4
													{
														OFFSET -4.461754 0.000000 0.000000
														CHANNELS 3 Xrotation Yrotation Zrotation
														End Site
														{
															OFFSET 0.000000 0.000000 0.000000
														}
													}
												}
											}
										}
										JOINT RightHandRing1
										{
											OFFSET -15.849876 -0.102936 -4.126237
											CHANNELS 3 Xrotation Yrotation Zrotation
											JOINT RightHandRing2
											{
												OFFSET -3.527054 0.000000 0.000000
												CHANNELS 3 Xrotation Yrotation Zrotation
												JOINT RightHandRing3
												{
													OFFSET -2.961098 0.000000 0.000000
													CHANNELS 3 Xrotation Yrotation Zrotation
													JOINT RightHandRing4
													{
														OFFSET -4.927200 0.000000 0.000000
														CHANNELS 3 Xrotation Yrotation Zrotation
														End Site
														{
															OFFSET 0.000000 0.000000 0.000000
														}
													}
												}
											}
										}
										JOINT RightHandPinky1
										{
											OFFSET -12.791786 -0.832077 -6.799222
											CHANNELS 3 Xrotation Yrotation Zrotation
											JOINT RightHandPinky2
											{
												OFFSET -3.327133 0.000000 0.000000
												CHANNELS 3 Xrotation Yrotation Zrotation
												JOINT RightHandPinky3
												{
													OFFSET -3.014900 0.000000 0.000000
													CHANNELS 3 Xrotation Yrotation Zrotation
													JOINT RightHandPinky4
													{
														OFFSET -5.847786 0.000000 0.000000
														CHANNELS 3 Xrotation Yrotation Zrotation
														End Site
														{
															OFFSET 0.000000 0.000000 0.000000
														}
													}
												}
											}
										}
									}
								}
							}
						}
					}
				}
			}
		}
	}
	JOINT LeftUpLeg
	{
		OFFSET 13.026900 -6.336304 -1.092800
		CHANNELS 3 Xrotation Yrotation Zrotation
		JOINT LeftLeg
		{
			OFFSET 0.524474 -46.096886 9.782700
			CHANNELS 3 Xrotation Yrotation Zrotation
			JOINT LeftFoot
			{
				OFFSET -0.524474 -53.427422 -12.948200
				CHANNELS 3 Xrotation Yrotation Zrotation
				JOINT LeftToeBase
				{
					OFFSET 0.192200 -14.009700 16.364100
					CHANNELS 3 Xrotation Yrotation Zrotation
					JOINT LeftToe_End
					{
						OFFSET -1.784700 -0.561700 9.474800
						CHANNELS 3 Xrotation Yrotation Zrotation
						End Site
						{
							OFFSET 0.000000 0.000000 0.000000
						}
					}
				}
			}
		}
	}
	JOINT RightUpLeg
	{
		OFFSET -12.883000 -6.336304 -1.092800
		CHANNELS 3 Xrotation Yrotation Zrotation
		JOINT RightLeg
		{
			OFFSET -0.524587 -46.096825 9.782800
			CHANNELS 3 Xrotation Yrotation Zrotation
			JOINT RightFoot
			{
				OFFSET 0.524587 -53.427383 -12.948300
				CHANNELS 3 Xrotation Yrotation Zrotation
				JOINT RightToeBase
				{
					OFFSET -0.192200 -14.009700 16.364100
					CHANNELS 3 Xrotation Yrotation Zrotation
					JOINT RightToe_End
					{
						OFFSET 1.784700 -0.561700 9.474800
						CHANNELS 3 Xrotation Yrotation Zrotation
						End Site
						{
							OFFSET 0.000000 0.000000 0.000000
						}
					}
				}
			}
		}
	}
}
MOTION
Frames: 4
Frame Time: 0.016667
-0.239283 101.971413 0.759117 -0.670514 -15.867031 -1.595006 3.773056 1.273599 0.183428 2.523603 1.177438 -0.059023 0.000000 0.000000 0.000000 2.503912 1.224026 -0.090937 0.457846 0.824230 4.848788 8.545307 11.130797 -0.783158 -0.000001 0.000000 0.000001 0.513446 1.082365 14.986782 0.000000 0.000000 0.000000 -49.547446 -53.697171 -56.631998 0.000007 -52.589550 0.000001 -101.282539 -0.136476 2.488772 35.234535 -17.219595 -17.236898 29.406864 28.726519 -29.411809 9.113591 14.378716 -9.922567 0.000000 0.000001 -0.000001 0.797689 3.221909 -27.804749 0.799605 3.225524 -27.838620 0.202677 1.661522 -13.908059 0.000002 0.000000 -0.000001 0.796789 3.220210 -27.788719 0.800491 3.227228 -27.854649 0.202688 1.661524 -13.908061 -0.000001 0.000001 0.000001 0.797687 3.221911 -27.804752 0.799600 3.225522 -27.838615 0.202684 1.661523 -13.908061 -0.000001 0.000000 0.000002 2.684955 6.814122 -27.459497 0.809072 -0.835571 -28.291871 0.202670 1.661528 -13.908053 0.000000 -0.000001 0.000002 0.384724 -1.325533 -0.769391 0.000000 0.000000 0.000000 3.865961 95.192128 -10.302341 0.000003 25.659952 -0.000001 -50.084254 -3.447577 -9.781614 40.606636 -3.110558 26.124248 -37.849507 -44.264988 -46.874960 -12.282867 -22.415216 -17.633353 0.000002 0.000000 -0.000000 3.635329 -6.111009 61.464504 7.728628 -6.904473 96.464462 2.305140 -5.174792 47.998748 -0.000001 0.000001 0.000001 3.635328 -6.111009 61.464497 7.728625 -6.904464 96.464449 2.305135 -5.174782 47.998762 -0.000001 -0.000002 -0.000002 3.635320 -6.111010 61.464504 7.728630 -6.904474 96.464462 2.305149 -5.174790 47.998768 -0.000001 0.000001 0.000003 3.635329 -6.111007 61.464504 7.728618 -6.904473 96.464456 2.305144 -5.174793 47.998751 -0.000002 0.000001 0.000002 -37.183591 16.665926 14.360281 50.084172 3.820967 10.201595 -14.576617 1.392455 -10.986043 -0.201331 -0.000005 -0.000000 0.000000 -0.000001 -0.000000 -32.964716 -20.712030 -11.357555 49.738233 -3.438666 -10.182447 -17.922565 -1.935563 10.442006 -0.041264 -0.000005 0.000004 -0.000000 -0.000002 -0.000000 
-0.195028 101.925346 0.786101 -0.674276 -15.815306 -1.583034 3.764796 1.254123 0.228846 2.514745 1.164373 -0.024040 0.000000 0.000000 0.000000 2.495215 1.211957 -0.055856 0.444800 0.831758 4.833578 8.560007 11.165285 -0.906730 0.000001 0.000000 0.000000 0.748158 0.781684 15.125087 0.000000 0.000000 0.000000 -49.125914 -53.329905 -56.178910 0.000013 -52.952486 0.000015 -101.491284 -0.073164 2.700980 35.234542 -17.219598 -17.236901 29.406864 28.726515 -29.411802 9.113593 14.378718 -9.922569 0.000001 -0.000002 0.000001 0.797685 3.221911 -27.804752 0.799606 3.225522 -27.838623 0.202676 1.661524 -13.908061 0.000001 0.000002 -0.000001 0.796791 3.220210 -27.788719 0.800491 3.227229 -27.854654 0.202691 1.661523 -13.908058 0.000000 0.000001 -0.000005 0.797683 3.221910 -27.804749 0.799602 3.225521 -27.838618 0.202680 1.661522 -13.908063 0.000000 0.000001 0.000001 2.684952 6.814123 -27.459497 0.809072 -0.835571 -28.291875 0.202669 1.661528 -13.908049 -0.000002 0.000000 -0.000000 0.387290 -1.315633 -0.755623 0.000000 0.000000 0.000000 4.637077 95.148626 -10.970057 0.000003 25.704906 0.000001 -50.030309 -3.689113 -9.647769 40.606636 -3.110557 26.124248 -37.849507 -44.264991 -46.874960 -12.282866 -22.415221 -17.633354 0.000003 0.000001 0.000000 3.635327 -6.111009 61.464504 7.728626 -6.904469 96.464462 2.305144 -5.174790 47.998751 0.000001 -0.000000 -0.000003 3.635326 -6.111007 61.464497 7.728626 -6.904465 96.464449 2.305137 -5.174782 47.998765 0.000004 -0.000001 -0.000001 3.635322 -6.111009 61.464504 7.728631 -6.904479 96.464462 2.305146 -5.174790 47.998762 0.000001 -0.000001 0.000002 3.635330 -6.111006 61.464504 7.728619 -6.904475 96.464456 2.305144 -5.174793 47.998751 0.000001 0.000001 -0.000001 -37.193734 16.593063 14.280227 50.169659 3.873280 10.200431 -14.625884 1.402241 -10.981338 -0.201398 0.000003 -0.000005 -0.000000 0.000000 0.000000 -33.072326 -20.891452 -11.539239 49.839177 -3.287079 -10.182882 -17.971285 -1.899390 10.401255 -0.041338 0.000005 0.000001 -0.000000 -0.000000 -0.000000 
-0.141173 101.873070 0.818323 -0.692348 -15.759996 -1.574468 3.764300 1.237810 0.282176 2.511989 1.154429 0.015427 0.000000 0.000000 0.000000 2.492560 1.203283 -0.016407 0.427323 0.835599 4.813934 8.559335 11.171112 -1.001660 0.000001 0.000000 0.000000 0.696102 0.770073 15.279770 0.000000 0.000000 0.000000 -49.162838 -53.221524 -56.426085 0.000003 -52.964746 -0.000007 -101.561553 0.130794 2.653128 35.234542 -17.219597 -17.236898 29.406864 28.726515 -29.411802 9.113594 14.378718 -9.922569 -0.000001 -0.000001 -0.000001 0.797688 3.221910 -27.804752 0.799605 3.225525 -27.838620 0.202676 1.661519 -13.908061 -0.000001 -0.000000 0.000000 0.796792 3.220212 -27.788715 0.800490 3.227229 -27.854650 0.202688 1.661522 -13.908061 -0.000003 0.000001 -0.000000 0.797686 3.221911 -27.804752 0.799601 3.225523 -27.838618 0.202685 1.661524 -13.908061 -0.000000 0.000002 0.000000 2.684953 6.814121 -27.459497 0.809073 -0.835572 -28.291875 0.202670 1.661529 -13.908049 0.000002 -0.000001 0.000000 0.383951 -1.340513 -0.713610 0.000000 0.000000 0.000000 5.054924 95.126312 -11.279566 0.000003 25.763204 0.000000 -50.049447 -3.937774 -9.643299 40.606636 -3.110557 26.124249 -37.849514 -44.264988 -46.874953 -12.282866 -22.415223 -17.633356 0.000001 0.000002 0.000000 3.635328 -6.111009 61.464504 7.728625 -6.904470 96.464462 2.305139 -5.174790 47.998751 -0.000001 -0.000002 0.000001 3.635323 -6.111008 61.464497 7.728625 -6.904468 96.464449 2.305133 -5.174783 47.998762 0.000002 0.000001 -0.000002 3.635324 -6.111009 61.464504 7.728629 -6.904476 96.464456 2.305145 -5.174788 47.998768 -0.000001 -0.000002 -0.000000 3.635331 -6.111007 61.464497 7.728618 -6.904467 96.464462 2.305145 -5.174793 47.998755 0.000000 0.000000 0.000003 -37.182498 16.489786 14.178300 50.265397 3.955325 10.198759 -14.683392 1.418281 -10.986671 -0.201730 0.000001 0.000001 -0.000000 0.000001 -0.000000 -33.178112 -21.083752 -11.741414 49.951892 -3.119693 -10.183405 -18.024811 -1.861009 10.360309 -0.041362 -0.000003 0.000001 0.000000 -0.000000 -0.000000 
-0.071815 101.815994 0.855832 -0.726867 -15.712556 -1.566582 3.771613 1.225976 0.347019 2.515586 1.148443 0.062321 0.000000 0.000000 0.000000 2.496205 1.198884 0.030350 0.407231 0.837275 4.781248 8.539274 11.143538 -1.073495 0.000002 0.000000 0.000000 0.649401 0.743677 15.445088 0.000000 0.000000 0.000000 -49.232215 -53.041296 -56.699439 -0.000021 -52.985117 -0.000024 -101.509049 0.375109 2.524163 35.234535 -17.219597 -17.236904 29.406864 28.726512 -29.411805 9.113596 14.378718 -9.922568 -0.000002 -0.000001 -0.000001 0.797686 3.221911 -27.804752 0.799606 3.225525 -27.838620 0.202677 1.661521 -13.908058 0.000000 0.000001 -0.000001 0.796790 3.220212 -27.788720 0.800491 3.227230 -27.854654 0.202687 1.661522 -13.908060 -0.000001 0.000003 0.000001 0.797685 3.221911 -27.804752 0.799604 3.225522 -27.838618 0.202681 1.661522 -13.908062 -0.000002 -0.000002 -0.000001 2.684955 6.814121 -27.459503 0.809072 -0.835572 -28.291876 0.202670 1.661529 -13.908055 -0.000004 -0.000001 0.000002 0.376741 -1.384608 -0.671987 0.000000 0.000000 0.000000 5.291833 95.121224 -11.413471 0.000003 25.831333 -0.000000 -50.103450 -4.169146 -9.766427 40.606636 -3.110557 26.124249 -37.849510 -44.264991 -46.874960 -12.282866 -22.415221 -17.633354 0.000002 0.000001 -0.000000 3.635321 -6.111008 61.464504 7.728624 -6.904467 96.464462 2.305138 -5.174790 47.998751 -0.000001 0.000001 0.000001 3.635317 -6.111007 61.464497 7.728626 -6.904464 96.464456 2.305141 -5.174782 47.998762 0.000001 0.000000 0.000000 3.635317 -6.111008 61.464504 7.728628 -6.904471 96.464456 2.305149 -5.174787 47.998772 -0.000000 -0.000002 0.000002 3.635323 -6.111005 61.464504 7.728618 -6.904474 96.464456 2.305141 -5.174791 47.998751 0.000000 -0.000003 0.000001 -37.145915 16.368716 14.054740 50.368834 4.071005 10.196563 -14.751002 1.437978 -11.000127 -0.202578 0.000003 0.000000 0.000000 -0.000001 -0.000000 -33.276969 -21.259394 -11.954886 50.072885 -2.947213 -10.184070 -18.076304 -1.826672 10.328055 -0.041324 0.000031 0.000004 0.000000 0.000003 0.000000 
